{"title":"20141116 - Share The Story - Celebration - by Darren Embree.mp4","uid":11487674,"size":125742978,"categoryP":"video","categoryS":"other","magnet":"?xt=urn:btih:edc0068a085710e6acb0fb73154551018d9c3af5&amp;dn=20141116+-+Share+The+Story+-+Celebration+-+by+Darren+Embree.mp4&amp;tr=udp%3A%2F%2Ftracker.openbittorrent.com%3A80&amp;tr=udp%3A%2F%2Fopen.demonii.com%3A1337&amp;tr=udp%3A%2F%2Ftracker.coppersurfer.tk%3A6969&amp;tr=udp%3A%2F%2Fexodus.desync.com%3A6969","seeders":2,"leechers":0,"uploader":"davidrpeet","files":1,"time":1416237766,"description":"Share The Story: Celebration - by Darren Embree\nWeekly sermons from CrossRoads Church in Decatur, Texas\n\n++++++++++++++++++++\n\nGeneral\nFormat                                   : MPEG-4\nFormat profile                           : Base Media / Version 2\nCodec ID                                 : mp42\nFile size                                : 120 MiB\nDuration                                 : 21mn 29s\nOverall bit rate mode                    : Variable\nOverall bit rate                         : 780 Kbps\nMovie name                               : Share The Story: Celebration\nAlbum                                    : CrossRoads Church \nAlbum/Performer                          : Darren Embree\nPerformer                                : Darren Embree\nComposer                                 : http://crossroadspeople.com/\nGenre                                    : Speech\nRecorded date                            : 2014\nEncoded date                             : UTC 2014-11-17 05:16:03\nTagged date                              : UTC 2014-11-17 05:16:03\nCover                                    : Yes\nComment                                  : CrossRoads To Go Video Podcasts\n\nVideo\nID                                       : 1\nFormat                                   : AVC\nFormat/Info                              : Advanced Video Codec\nFormat profile                           : &lt;a class=&quot;__cf_email__&quot; href=&quot;/cdn-cgi/l/email-protection&quot; data-cfemail=&quot;3d75545a557d710e130c&quot;&gt;[email&amp;#160;protected]&lt;/a&gt;&lt;script cf-hash='f9e31' type=&quot;text/javascript&quot;&gt;\n/* &lt;![CDATA[ */!function(){try{var t=&quot;currentScript&quot;in document?document.currentScript:function(){for(var t=document.getElementsByTagName(&quot;script&quot;),e=t.length;e--;)if(t[e].getAttribute(&quot;cf-hash&quot;))return t[e]}();if(t&amp;&amp;t.previousSibling){var e,r,n,i,c=t.previousSibling,a=c.getAttribute(&quot;data-cfemail&quot;);if(a){for(e=&quot;&quot;,r=parseInt(a.substr(0,2),16),n=2;a.length-n;n+=2)i=parseInt(a.substr(n,2),16)^r,e+=String.fromCharCode(i);e=document.createTextNode(e),c.parentNode.replaceChild(e,c)}}}catch(u){}}();/* ]]&gt; */&lt;/script&gt;\nFormat settings, CABAC                   : Yes\nFormat settings, ReFrames                : 4 frames\nCodec ID                                 : avc1\nCodec ID/Info                            : Advanced Video Coding\nDuration                                 : 21mn 29s\nBit rate                                 : 672 Kbps\nWidth                                    : 640 pixels\nHeight                                   : 470 pixels\nDisplay aspect ratio                     : 4:3\nFrame rate mode                          : Constant\nFrame rate                               : 29.970 fps\nColor space                              : YUV\nChroma subsampling                       : 4:2:0\nBit depth                                : 8 bits\nScan type                                : Progressive\nBits/(Pixel*Frame)                       : 0.075\nStream size                              : 103 MiB (86%)\nWriting library                          : x264 core 142 r11 dd79a61\nEncoded date                             : UTC 2014-11-17 05:16:03\nTagged date                              : UTC 2014-11-17 05:16:03\nColor primaries                          : BT.601 NTSC\nTransfer characteristics                 : BT.601\nMatrix coefficients                      : BT.601\n\nAudio\nID                                       : 2\nFormat                                   : AAC\nFormat/Info                              : Advanced Audio Codec\nFormat profile                           : LC\nCodec ID                                 : 40\nDuration                                 : 21mn 29s\nBit rate mode                            : Variable\nBit rate                                 : 103 Kbps\nChannel(s)                               : 2 channels\nChannel positions                        : Front: L R\nSampling rate                            : 48.0 KHz\nCompression mode                         : Lossy\nStream size                              : 15.8 MiB (13%)\nEncoded date                             : UTC 2014-11-17 05:16:03\nTagged date                              : UTC 2014-11-17 05:16:03","torrent":{"xt":"urn:btih:edc0068a085710e6acb0fb73154551018d9c3af5","amp;dn":"20141116+-+Share+The+Story+-+Celebration+-+by+Darren+Embree.mp4","amp;tr":["udp%3A%2F%2Ftracker.openbittorrent.com%3A80","udp%3A%2F%2Fopen.demonii.com%3A1337","udp%3A%2F%2Ftracker.coppersurfer.tk%3A6969","udp%3A%2F%2Fexodus.desync.com%3A6969"],"infoHash":"edc0068a085710e6acb0fb73154551018d9c3af5","infoHashBuffer":{"type":"Buffer","data":[237,192,6,138,8,87,16,230,172,176,251,115,21,69,81,1,141,156,58,245]},"announce":[],"urlList":[]}}